<?xml version="1.0" standalone="no"?>
<!DOCTYPE svg PUBLIC "-//W3C//DTD SVG 20010904//EN"
 "http://www.w3.org/TR/2001/REC-SVG-20010904/DTD/svg10.dtd">
<svg version="1.0" xmlns="http://www.w3.org/2000/svg"
 width="860.000000pt" height="788.000000pt" viewBox="0 0 860.000000 788.000000"
 preserveAspectRatio="xMidYMid meet">

<g transform="translate(0.000000,788.000000) scale(0.100000,-0.100000)"
fill="#000000" stroke="none">
<path d="M300 7285 l0 -195 350 0 349 0 4 -1847 3 -1848 27 -145 c47 -249 113
-446 211 -628 83 -154 149 -244 271 -371 173 -179 310 -277 545 -390 307 -147
607 -216 1085 -248 l90 -6 109 -109 c508 -508 1133 -831 1851 -958 60 -11 112
-16 116 -12 5 6 59 320 63 366 1 14 -8 22 -34 28 -152 38 -430 142 -577 217
-190 95 -404 235 -567 369 -117 96 -310 292 -407 413 -125 154 -278 396 -346
549 -19 41 -38 84 -43 95 -90 196 -180 536 -212 795 -17 138 -16 546 1 670 78
563 320 1058 715 1468 220 227 463 413 739 566 l67 38 0 259 c0 142 -4 259 -8
259 -41 0 -343 -125 -520 -214 -977 -495 -1609 -1370 -1723 -2386 -26 -232
-10 -714 31 -919 76 -379 203 -711 391 -1018 22 -36 38 -67 36 -69 -5 -5 -183
41 -262 68 -173 58 -341 162 -470 292 -222 223 -345 517 -406 971 -9 67 -13
606 -16 2113 l-4 2022 -729 0 -730 0 0 -195z"/>
<path d="M4150 7285 l0 -195 670 0 670 0 0 195 0 195 -670 0 -670 0 0 -195z"/>
<path d="M5690 6794 c-14 -2 -64 -6 -112 -9 l-87 -7 -4 -1706 c-4 -1779 -3
-1758 -48 -1977 -51 -253 -160 -493 -307 -674 l-36 -44 -29 34 c-136 160 -239
365 -293 583 -57 233 -57 227 -61 1324 -2 556 -8 1012 -12 1012 -13 0 -134
-131 -230 -250 -255 -317 -418 -684 -472 -1070 -20 -140 -17 -524 5 -674 80
-550 312 -1027 685 -1409 217 -223 504 -422 751 -522 36 -14 74 -30 85 -35 88
-43 374 -117 540 -142 115 -16 528 -16 655 0 283 37 546 110 760 209 113 52
250 131 250 144 0 5 -21 40 -46 79 -44 65 -47 68 -68 55 -31 -20 -168 -71
-270 -100 -168 -49 -304 -67 -541 -72 -313 -7 -503 18 -760 102 -176 57 -423
196 -548 307 l-49 43 89 71 c101 82 268 251 334 339 96 127 163 245 232 405
79 185 133 454 147 735 5 99 10 789 10 1533 l0 1352 83 0 c319 0 683 -121 932
-309 240 -182 416 -484 441 -756 4 -41 11 -78 15 -81 19 -11 324 -63 330 -56
4 4 22 93 39 197 38 222 86 507 130 760 57 334 68 400 66 403 -2 1 -50 11
-107 22 -57 11 -138 27 -179 35 -124 25 -113 35 -137 -121 -11 -74 -23 -137
-25 -140 -3 -2 -49 17 -104 42 -568 266 -1113 377 -1814 373 -118 -1 -226 -3
-240 -5z"/>
</g>
</svg>
